<?xml version="1.0" encoding="utf-8"?>
<!-- Generator: Adobe Illustrator 19.2.1, SVG Export Plug-In . SVG Version: 6.00 Build 0)  -->
<svg version="1.1" id="layer" xmlns="http://www.w3.org/2000/svg" xmlns:xlink="http://www.w3.org/1999/xlink" x="0px" y="0px"
	 viewBox="0 0 652 652" style="enable-background:new 0 0 652 652;" xml:space="preserve">
<style type="text/css">
	.st0{fill-rule:evenodd;clip-rule:evenodd;}
	.st1{fill:#ED1D24;}
</style>
<path d="M21.5,462.4h2.1c0-2.2,0.1-5.5,3.2-5.5c4.8,0,11.6,6.8,24.5,6.8c18.7,0,27.9-12.9,27.9-30c0-17.1-7.7-23.2-26.5-26.7
	c-21.4-3.9-25.8-6.6-25.8-18.3c0-12.1,7.7-19.4,18.7-19.4c17.2,0,25.2,13.5,26.4,28.5h2v-27.5h-2c-0.4,1.7-0.8,5-3.8,5
	c-4.4,0-9.4-8-22.7-8c-14.4,0-24.1,10.9-24.1,25.9c0,22,9.5,25.5,29.8,28.7C66,424.1,73,428.1,73,441.8c0,11.8-8.9,19.8-21.3,19.8
	c-15.5,0-28.2-10.3-28.2-32.4h-2.1V462.4"/>
<path d="M98.6,459.5H88.3v2.1h31.4v-2.1h-10.3v-94.3c-2.6,3-6.7,3.3-10.8,3.3H88.3v2.1h10.3V459.5"/>
<path class="st0" d="M126.8,434.1c0,15.1,10.7,29.1,27.3,29.1c16.6,0,27.3-14,27.3-29.1c0-15.1-10.7-29.1-27.3-29.1
	C137.5,404.9,126.8,419,126.8,434.1 M169.1,439.2c0,11.4-0.5,21.9-14.9,21.9c-14.4,0-14.9-10.5-14.9-21.9v-10.2
	c0-11.4,0.5-21.9,14.9-21.9c14.4,0,14.9,10.5,14.9,21.9V439.2"/>
<path class="st0" d="M217.7,464.8h0.9l13.6-32.7l14.3,32.7h0.9l18.9-44.5c2.8-6.7,4.4-10.3,12.4-10.3v-2.1h-22.4v2.1h3.5
	c4.4,0,6.1,1.4,6.1,3.9c0,2-0.5,4.1-2,7.6l-12.2,28.7l-17-40.3h10.3v-2.1H187v2.1h7L217.7,464.8z M206.6,409.9h16.1l8.5,19.7
	l-8.3,19.7L206.6,409.9"/>
<path d="M330.1,459.5h-11.7v2.1h37v-2.1h-12.1v-43.8h9.5c13.5,0,14.8,6,14.8,16h2.1v-34.9h-2.1c0,8.5-1.3,16.8-14.7,16.8h-9.7v-42.2
	h20.5c14.1,0,22.6,4.8,23.2,20.2h2.2l-1.8-22.3h-68.9v2.1h11.7V459.5"/>
<path class="st0" d="M398.8,434.1c0,15.1,10.7,29.1,27.3,29.1s27.3-14,27.3-29.1c0-15.1-10.7-29.1-27.3-29.1S398.8,419,398.8,434.1
	 M441,439.2c0,11.4-0.5,21.9-14.9,21.9c-14.4,0-14.9-10.5-14.9-21.9v-10.2c0-11.4,0.5-21.9,14.9-21.9c14.4,0,14.9,10.5,14.9,21.9
	V439.2"/>
<path class="st0" d="M463.2,434.1c0,15.1,10.7,29.1,27.3,29.1s27.3-14,27.3-29.1c0-15.1-10.7-29.1-27.3-29.1S463.2,419,463.2,434.1
	 M505.4,439.2c0,11.4-0.5,21.9-14.9,21.9c-14.4,0-14.9-10.5-14.9-21.9v-10.2c0-11.4,0.5-21.9,14.9-21.9c14.4,0,14.9,10.5,14.9,21.9
	V439.2"/>
<path class="st0" d="M573.4,442.7c0.1,10.9-8.4,18.4-17.1,18.4c-12.6,0-14.2-7.5-14.2-27c0-18,1.9-27,13.3-27
	c10.7,0,18,10.8,18,20.4V442.7z M573.4,461.6h19.7v-2.1h-8.9v-94.3c-2.6,3-6.7,3.3-10.8,3.3h-10.3v2.1h10.3v47.8h-0.3
	c-2.3-6.2-8.5-13.4-17.8-13.4c-15.5,0-25.7,16.3-25.7,29.1c0,15.4,10.4,29.1,26.5,29.1c8.9,0,14.9-6.7,16.9-11.1h0.3V461.6"/>
<path class="st0" d="M608.5,367.9c-7.2,0-13,6-13,13.2c0,7.3,5.8,13.2,13,13.2c7.2,0,13-5.9,13-13.2
	C621.5,373.9,615.7,367.9,608.5,367.9 M608.5,369.7c6.1,0,11.1,5.3,11.1,11.5c0,6.2-5,11.5-11.1,11.5c-6.1,0-11.1-5.3-11.1-11.5
	C597.4,375,602.4,369.7,608.5,369.7 M602.3,388h6.1v-0.6h-0.8c-0.8,0-1.1-0.2-1.1-1.9v-3.8h1.9c2.8,3.8,3.7,6.3,5,6.3h2.3v-0.6
	c-0.9,0-2-1.6-3.1-3l-2-3c1.8-0.5,2.9-1.9,2.9-4c0-2.6-2.2-3.6-4.5-3.6h-6.7v0.6h0.8c0.9,0,1.1,0.2,1.1,1.9v9.2
	c0,1.7-0.2,1.9-1.1,1.9h-0.8V388z M606.5,374.5h1.7c1.6,0,3,0.8,3,3s-1,3.7-2.9,3.7h-1.8V374.5"/>
<path class="st1" d="M342.8,224.5c0.3-0.7-4.9-1.5-12.2-15.5c-7.3-13.9-55.8-55.7-109.6-6.5c0,0-49.9,45.9-6.4,106.7
	c0,0,14.7,23.7,51.4,22.4c0,0,49.4,2.8,60.9-44.1c0,0,8.6-66.1-53.1-76c0,0-41.9-4.5-47,42.9c0,0-6.6,42.9,38.9,45.9
	c0,0,33-0.2,31.6-31.6c0,0-0.3-33.4-26.7-33.1c0,0-19.8-1.7-19.8,21.9c0,0-1.5,19.9,14.2,19.7c0,0,8.3,0.8,8.6-9.2
	c0,0-0.7-11.2-9.3-6.2c0,0-3.7-3.5,0.5-6.7c0,0,2-4.3,10.3,0.8c0,0,10.3,9.9,1,22.9c0,0-13.2,12.5-25.9-3.2c0,0-14.2-17,0.7-37.4
	c0,0,22.5-25.2,44.5,4.7c0,0,20.6,28.7-3.7,56.1c0,0-35,26.9-64.1-12c0,0-24.7-42.1,12.2-71.5c0,0,28.9-22.9,59.9-3
	c0,0,22.3,10.2,32.1,45.6C331.8,257.9,342.6,225.2,342.8,224.5"/>
<path class="st1" d="M345.5,232c-0.9,0.5-17.1,33.7-12.5,89.2c0,0,26.7,4.5,45.8-18.4c0,0,10.3-10.7,14.2-25.4
	c0,0,2.9-17.9,18.4-31.4l3.9-3.3c0,0,1.9-3.5-3.2-2.4c0,0-6.3,0.5-15.2,14.7c0,0-3.9,6.5-8.8,0.8c0,0-13.7-21.2-15.7-23
	c0,0-1.6-2.6-3.8-1c0,0-1.6,1.7,1.2,5.7c0,0,10.5,15.4,12.1,20.9c1.6,5.6,3.3,19.9-7,27.9c0,0-15.4,11.9-26.7-10.2
	c0,0-4.5-9.5-2-30.2C346.4,245.9,346.7,231.3,345.5,232"/>
<path class="st1" d="M299.5,331.4c-2,0,18.6-10.7,26.2-24.4c0,0,1,16,1.2,17C326.9,323.9,312.3,331.6,299.5,331.4"/>
</svg>
